<?xml version="1.0" encoding="utf-8"?>
<!-- Generator: Adobe Illustrator 22.1.0, SVG Export Plug-In . SVG Version: 6.00 Build 0)  -->
<svg version="1.1" id="Calque_1" xmlns="http://www.w3.org/2000/svg" xmlns:xlink="http://www.w3.org/1999/xlink" x="0px" y="0px"
	 viewBox="0 0 97 34.5" style="enable-background:new 0 0 97 34.5;" xml:space="preserve">
<style type="text/css">
	.st0{fill:white;}
	.st1{fill:#DA272E;}
	.st2{fill:#FFFFFF;}
</style>
<title>1</title>
<path class="st0" d="M29.2,9.8c0-1.9,1-3.6,2.6-4.5c-0.5-1.4-1.3-2.7-2.2-3.9c-0.8,0.5-1.6,1.1-2.2,1.7C28.6,5.1,29.2,7.5,29.2,9.8
	L29.2,9.8z"/>
<path class="st0" d="M41.5,3.1c-0.6-0.7-1.4-1.3-2.2-1.7c-1,1.2-1.7,2.5-2.3,3.9c1.6,0.9,2.6,2.7,2.6,4.5l0,0
	C39.6,7.5,40.3,5.1,41.5,3.1z"/>
<path class="st0" d="M9.8,0.1C4.4,0.1,0,4.4,0,9.8v9.8h4.5V9.8c0-2.9,2.3-5.2,5.2-5.2V0.1z"/>
<path class="st0" d="M69.6,9.8L69.6,9.8c0,2.9-2.3,5.2-5.2,5.2l0,0l0,0c-0.6,0-1.3-0.1-1.9-0.3l7.1-7.1l2.5-2.5l0.2-0.2l0.1-0.1
	l0.1-0.1l0.1-0.1l0,0c-2.8-4.5-8.8-5.9-13.4-3.1c-0.7,0.4-1.3,1-1.9,1.6c1.1,1.8,1.7,3.9,1.8,6l0,0C58.7,3.8,54-0.2,48.6,0.2
	c-5,0.4-8.9,4.6-9,9.6c0,2.9-2.3,5.2-5.2,5.2c-2.9,0-5.2-2.3-5.2-5.2c0-5.4-4.4-9.7-9.8-9.7c-5.4,0-9.7,4.4-9.7,9.8
	c0,5.4,4.4,9.7,9.8,9.7c2.7,0,5.2-1.1,7.1-3.1c-1-1.7-1.6-3.7-1.8-5.7c0.7,5.3,5.5,9.1,10.9,8.4c4.4-0.6,7.9-4.1,8.5-8.5l0,0
	c-0.1,2.1-0.8,4-1.8,5.8c1.8,1.9,4.4,3,7.1,3c2.9,0,5.2,2.3,5.2,5.2S52.3,30,49.4,30s-5.2-2.3-5.2-5.2c0,0,0,0,0,0h-4.5
	c0,5.4,4.3,9.8,9.7,9.8s9.8-4.3,9.8-9.7c0-2.9-1.3-5.7-3.5-7.6c0.3-0.2,0.6-0.5,0.8-0.8c-1.1-1.8-1.7-3.9-1.8-6.1
	c0.1,2.1,1,4.2,2.4,5.8l0,0c3.6,4,9.7,4.4,13.7,0.8c2.1-1.8,3.2-4.4,3.3-7.2H69.6z M19.5,15c-2.9,0-5.2-2.3-5.2-5.2
	c0-2.9,2.3-5.2,5.2-5.2c2.6,0,4.9,2,5.2,4.6c0,0.1,0,0.1,0,0.2s0,0.3,0,0.4C24.7,12.7,22.3,15,19.5,15z M49.4,15
	c-2.5,0-4.7-1.8-5.1-4.3c0-0.1,0-0.3-0.1-0.4c0-0.1,0-0.3,0-0.5c0-2.9,2.3-5.2,5.2-5.3c2.9,0,5.2,2.3,5.3,5.2S52.3,15,49.4,15
	C49.4,15,49.4,15,49.4,15z M59.1,9.8c0-0.1,0-0.3,0-0.4s0-0.2,0-0.3c0.3-2.6,2.6-4.5,5.2-4.5c0.6,0,1.1,0.1,1.7,0.3l-6.6,6.6
	C59.2,11,59.1,10.4,59.1,9.8L59.1,9.8z"/>
<path class="st1" d="M90.2,6.8c-1.6-1.6-4.2-1.6-5.8,0c-1.6,1.6-1.6,4.2,0,5.8s4.2,1.6,5.8,0c0,0,0,0,0,0
	C91.8,11.1,91.8,8.5,90.2,6.8C90.2,6.9,90.2,6.8,90.2,6.8z M89.5,10.5H88V12h-1.5v-1.5H85V9h1.5V7.5H88V9h1.5L89.5,10.5L89.5,10.5z"
	/>
<polygon class="st2" points="89.4,9 89.4,10.5 88,10.5 88,12 86.5,12 86.5,10.5 85,10.5 85,9 86.5,9 86.5,7.5 88,7.5 88,9 "/>
<path class="st1" d="M97,9.7c0,5.4-4.3,9.8-9.7,9.8c-5.4,0-9.8-4.3-9.8-9.7c0-5.4,4.3-9.7,9.6-9.8c-0.5,1.1-0.8,2.3-0.9,3.5
	c-3.4,0.6-5.7,3.9-5.1,7.3c0.6,3.4,3.9,5.7,7.3,5.1c3.4-0.6,5.7-3.9,5.1-7.3c-0.5-2.6-2.5-4.6-5.1-5.1c0.1-1.1,0.5-2.2,1-3.2
	C93.9,1.3,97,5.2,97,9.7z"/>
<path class="st2" d="M91.7,5.2c-0.9-0.9-2-1.5-3.3-1.8c0.1-1.1,0.5-2.2,1-3.2l-0.3-0.1l-0.3-0.1l-0.4-0.1h-0.2h-0.4h-0.7h-0.1
	c-0.5,1.1-0.8,2.3-0.9,3.5c-3.5,0.6-5.8,3.9-5.2,7.4s3.9,5.8,7.4,5.2c3.5-0.6,5.8-3.9,5.2-7.4C93.3,7.4,92.7,6.2,91.7,5.2z
	 M90.2,12.6c-1.6,1.6-4.2,1.6-5.8,0s-1.6-4.2,0-5.8c1.6-1.6,4.2-1.6,5.8,0C91.8,8.4,91.8,11,90.2,12.6z"/>
</svg>
